<svg width="1182" height="387" viewBox="0 0 1182 387" fill="none" xmlns="http://www.w3.org/2000/svg">
<path d="M0 362.455C0 351.158 9.15781 342 20.4545 342H21.6667C24.0599 342 26 343.94 26 346.333V375.182C26 381.709 20.7088 387 14.1818 387V387C6.34942 387 0 380.651 0 372.818V362.455Z" fill="#AC7EB8" fill-opacity="0.46"/>
<path d="M815 194.1C815 177.476 828.476 164 845.1 164H850.889C861.444 164 870 172.556 870 183.111V183.111C870 196.305 859.305 207 846.111 207H827.9C820.776 207 815 201.224 815 194.1V194.1Z" fill="#F8FB71" fill-opacity="0.54"/>
<path d="M139 285.667C139 269.835 151.835 257 167.667 257V257C175.583 257 182 263.417 182 271.333V273.333C182 289.165 169.165 302 153.333 302V302C145.417 302 139 295.583 139 287.667V285.667Z" fill="#92F990" fill-opacity="0.41"/>
<path d="M423.178 118.318C441.294 118.318 449.238 123.308 464.99 126.809C476.652 129.4 489.747 161.572 476.525 161.572C447.947 161.572 428.945 152.928 428.945 121.202" stroke="#68B3DF" stroke-linecap="round" stroke-linejoin="round"/>
<path d="M1135.43 132.736C1152.34 150.072 1149.84 160.692 1149.84 183.199C1149.84 190.712 1118.75 188.197 1112.36 187.524C1098.65 186.081 1092.92 155.39 1105.15 148.596C1110.86 145.425 1112.64 144.27 1119.57 144.27C1124.34 144.27 1128.18 137.801 1132.54 135.62" stroke="#ED6060" stroke-linecap="round" stroke-linejoin="round"/>
<path d="M434 120C434 109.507 442.507 101 453 101V101C463.493 101 472 109.507 472 120V120C472 130.493 463.493 139 453 139V139C442.507 139 434 130.493 434 120V120Z" fill="#30D3F7" fill-opacity="0.51"/>
<path d="M1124 157.444C1124 143.944 1134.94 133 1148.44 133H1157.56C1171.06 133 1182 143.944 1182 157.444V157.444C1182 168.245 1173.24 177 1162.44 177H1143.56C1132.76 177 1124 168.245 1124 157.444V157.444Z" fill="#DFA22B" fill-opacity="0.45"/>
<path d="M432 35.2941C432 15.8017 447.802 0 467.294 0H479.143C489.557 0 498 8.44263 498 18.8571V30C498 46.5685 484.569 60 468 60H456.706C443.061 60 432 48.9388 432 35.2941V35.2941Z" fill="#D640AC" fill-opacity="0.65"/>
</svg>
