<svg width="79" height="86" viewBox="0 0 79 86" fill="none" xmlns="http://www.w3.org/2000/svg">
<circle cx="39.5" cy="40.5" r="32.5" fill="#EE88FF" fill-opacity="0.29"/>
<path d="M40.3579 8.06247C22.0807 7.80038 7.15948 23.6419 7.40634 43.0464C7.65008 61.6565 21.9229 76.8096 39.4517 77.0683C57.7321 77.3337 72.6502 61.4922 72.4002 42.0877C72.1596 23.4743 57.8868 8.32124 40.3579 8.06247ZM60.1102 62.3465C60.0479 62.418 59.9716 62.474 59.8867 62.5107C59.8018 62.5473 59.7103 62.5637 59.6188 62.5587C59.5272 62.5536 59.4379 62.5272 59.357 62.4814C59.2761 62.4355 59.2057 62.3714 59.1508 62.2934C57.7533 60.3522 56.0419 58.6902 54.0964 57.3851C50.1184 54.6746 45.078 53.1817 39.9048 53.1817C34.7316 53.1817 29.6912 54.6746 25.7133 57.3851C23.7679 58.6897 22.0564 60.3511 20.6589 62.2918C20.604 62.3697 20.5336 62.4339 20.4527 62.4797C20.3718 62.5255 20.2825 62.5519 20.1909 62.557C20.0994 62.5621 20.0079 62.5457 19.923 62.509C19.838 62.4724 19.7618 62.4163 19.6995 62.3449C15.1149 57.0904 12.5178 50.2245 12.4061 43.063C12.1514 26.9213 24.6274 13.4104 39.8377 13.3706C55.0479 13.3308 67.4036 26.4436 67.4036 42.5654C67.4088 49.8996 64.8037 56.9651 60.1102 62.3465Z" fill="black"/>
<path d="M39.5 24.1875C36.4572 24.1875 33.7061 25.4288 31.7512 27.6846C29.7962 29.9404 28.8195 33.0596 29.0402 36.4072C29.4877 43 34.1798 48.375 39.5 48.375C44.8201 48.375 49.503 43 49.9598 36.4089C50.1881 33.0932 49.2191 30.0026 47.2318 27.7048C45.2691 25.4372 42.5227 24.1875 39.5 24.1875Z" fill="black"/>
</svg>
